<svg width="35" height="43" viewBox="0 0 35 43" fill="none" xmlns="http://www.w3.org/2000/svg">
<path d="M17.5624 23.6805C20.5994 23.6805 23.0613 21.1936 23.0613 18.1259C23.0613 15.0582 20.5994 12.5713 17.5624 12.5713C14.5254 12.5713 12.0635 15.0582 12.0635 18.1259C12.0635 21.1936 14.5254 23.6805 17.5624 23.6805Z" stroke="#1288CA" stroke-width="5" stroke-linecap="round" stroke-linejoin="round"/>
<path d="M17.5622 3.31372C13.6731 3.31372 9.94335 4.87429 7.19336 7.65213C4.44337 10.43 2.89844 14.1975 2.89844 18.126C2.89844 21.6291 3.63529 23.9213 5.6479 26.4579L17.5622 40.3444L29.4765 26.4579C31.4891 23.9213 32.226 21.6291 32.226 18.126C32.226 14.1975 30.6811 10.43 27.9311 7.65213C25.1811 4.87429 21.4513 3.31372 17.5622 3.31372V3.31372Z" stroke="#1288CA" stroke-width="5" stroke-linecap="round" stroke-linejoin="round"/>
</svg>
