<svg width="50" height="38" viewBox="0 0 50 38" fill="none" xmlns="http://www.w3.org/2000/svg">
<g clip-path="url(#clip0_1_384)">
<path d="M46.0523 30.5281H34.9339V29.7561C34.9339 27.6136 34.3885 25.6113 33.4499 23.8466C33.4955 23.8449 33.5413 23.8438 33.5871 23.8431C34.7411 24.1878 36.0115 24.4268 37.3861 24.4268C38.7607 24.4268 40.0312 24.1878 41.1853 23.8431C44.6889 23.8854 47.2664 26.5405 47.2664 29.5224C47.2664 29.943 46.8601 30.5281 46.0523 30.5281ZM21.2677 10.8256C21.2677 13.8316 18.6484 16.5055 15.1015 16.5055C11.5546 16.5055 8.93528 13.8316 8.93528 10.8256C8.93528 7.81957 11.5546 5.14575 15.1015 5.14575C18.6484 5.14575 21.2677 7.81957 21.2677 10.8256ZM15.1015 25.0111C17.1894 25.0111 19.1489 24.5727 20.9189 23.8426H21.0441C24.7225 23.8426 27.4579 26.6259 27.4579 29.7561V31.8595C27.4579 32.2801 27.0516 32.8652 26.2438 32.8652H3.95921C3.15143 32.8652 2.74512 32.2801 2.74512 31.8595V29.7561C2.74512 26.6259 5.48047 23.8426 9.15895 23.8426H9.28579C11.0575 24.5715 13.0105 25.0111 15.1015 25.0111ZM42.3143 11.9942C42.3143 14.3502 40.2444 16.5055 37.3861 16.5055C34.5278 16.5055 32.4579 14.3502 32.4579 11.9942C32.4579 9.63812 34.5278 7.48285 37.3861 7.48285C40.2444 7.48285 42.3143 9.63813 42.3143 11.9942Z" stroke="#1288CA" stroke-width="5"/>
</g>
<defs>
<clipPath id="clip0_1_384">
<rect width="49.5213" height="37.3936" fill="white" transform="translate(0.245117 0.308594)"/>
</clipPath>
</defs>
</svg>
